<svg width="1920" height="412" viewBox="0 0 1920 412" fill="none" xmlns="http://www.w3.org/2000/svg">
<g clip-path="url(#clip0_2588_643)">
<path opacity="0.1" d="M9.8025 341V337.832C11.1678 336.744 12.4905 335.656 13.7705 334.568C15.0718 333.48 16.2345 332.403 17.2585 331.336C18.2825 330.248 19.0932 329.192 19.6905 328.168C20.2878 327.144 20.5865 326.152 20.5865 325.192C20.5865 324.595 20.4798 324.051 20.2665 323.56C20.0532 323.048 19.7118 322.643 19.2425 322.344C18.7945 322.024 18.1972 321.864 17.4505 321.864C16.7038 321.864 16.0745 322.035 15.5625 322.376C15.0505 322.717 14.6665 323.176 14.4105 323.752C14.1545 324.307 14.0265 324.936 14.0265 325.64H9.8345C9.8985 323.997 10.2718 322.621 10.9545 321.512C11.6372 320.403 12.5545 319.581 13.7065 319.048C14.8585 318.493 16.1492 318.216 17.5785 318.216C19.1572 318.216 20.4905 318.515 21.5785 319.112C22.6665 319.688 23.4878 320.477 24.0425 321.48C24.6185 322.483 24.9065 323.635 24.9065 324.936C24.9065 325.917 24.7252 326.877 24.3625 327.816C24.0212 328.755 23.5305 329.672 22.8905 330.568C22.2718 331.443 21.5678 332.285 20.7785 333.096C19.9892 333.907 19.1678 334.685 18.3145 335.432C17.4612 336.157 16.6292 336.84 15.8185 337.48H25.4505V341H9.8025ZM36.5302 341.384C34.5036 341.384 32.7542 340.893 31.2822 339.912C29.8102 338.931 28.6796 337.576 27.8902 335.848C27.1222 334.099 26.7382 332.083 26.7382 329.8C26.7382 327.517 27.1222 325.512 27.8902 323.784C28.6796 322.035 29.7996 320.669 31.2502 319.688C32.7222 318.707 34.4822 318.216 36.5302 318.216C38.5782 318.216 40.3276 318.707 41.7782 319.688C43.2502 320.669 44.3703 322.035 45.1383 323.784C45.9276 325.512 46.3223 327.517 46.3223 329.8C46.3223 332.083 45.9276 334.099 45.1383 335.848C44.3703 337.576 43.2502 338.931 41.7782 339.912C40.3276 340.893 38.5782 341.384 36.5302 341.384ZM36.5302 337.512C37.5969 337.512 38.5356 337.203 39.3462 336.584C40.1569 335.944 40.7862 335.048 41.2342 333.896C41.7036 332.744 41.9382 331.379 41.9382 329.8C41.9382 328.2 41.7036 326.835 41.2342 325.704C40.7862 324.552 40.1569 323.667 39.3462 323.048C38.5356 322.429 37.5969 322.12 36.5302 322.12C35.4636 322.12 34.5249 322.429 33.7142 323.048C32.9036 323.667 32.2636 324.552 31.7942 325.704C31.3462 326.835 31.1222 328.2 31.1222 329.8C31.1222 331.379 31.3462 332.744 31.7942 333.896C32.2636 335.048 32.9036 335.944 33.7142 336.584C34.5249 337.203 35.4636 337.512 36.5302 337.512Z" fill="white"/>
<path opacity="0.5" d="M1858.68 333V329.832C1860.04 328.744 1861.36 327.656 1862.64 326.568C1863.95 325.48 1865.11 324.403 1866.13 323.336C1867.16 322.248 1867.97 321.192 1868.56 320.168C1869.16 319.144 1869.46 318.152 1869.46 317.192C1869.46 316.595 1869.35 316.051 1869.14 315.56C1868.93 315.048 1868.59 314.643 1868.12 314.344C1867.67 314.024 1867.07 313.864 1866.32 313.864C1865.58 313.864 1864.95 314.035 1864.44 314.376C1863.92 314.717 1863.54 315.176 1863.28 315.752C1863.03 316.307 1862.9 316.936 1862.9 317.64H1858.71C1858.77 315.997 1859.15 314.621 1859.83 313.512C1860.51 312.403 1861.43 311.581 1862.58 311.048C1863.73 310.493 1865.02 310.216 1866.45 310.216C1868.03 310.216 1869.36 310.515 1870.45 311.112C1871.54 311.688 1872.36 312.477 1872.92 313.48C1873.49 314.483 1873.78 315.635 1873.78 316.936C1873.78 317.917 1873.6 318.877 1873.24 319.816C1872.9 320.755 1872.4 321.672 1871.76 322.568C1871.15 323.443 1870.44 324.285 1869.65 325.096C1868.86 325.907 1868.04 326.685 1867.19 327.432C1866.34 328.157 1865.5 328.84 1864.69 329.48H1874.32V333H1858.68ZM1885.4 333.384C1883.38 333.384 1881.63 332.893 1880.16 331.912C1878.68 330.931 1877.55 329.576 1876.76 327.848C1876 326.099 1875.61 324.083 1875.61 321.8C1875.61 319.517 1876 317.512 1876.76 315.784C1877.55 314.035 1878.67 312.669 1880.12 311.688C1881.6 310.707 1883.36 310.216 1885.4 310.216C1887.45 310.216 1889.2 310.707 1890.65 311.688C1892.12 312.669 1893.24 314.035 1894.01 315.784C1894.8 317.512 1895.2 319.517 1895.2 321.8C1895.2 324.083 1894.8 326.099 1894.01 327.848C1893.24 329.576 1892.12 330.931 1890.65 331.912C1889.2 332.893 1887.45 333.384 1885.4 333.384ZM1885.4 329.512C1886.47 329.512 1887.41 329.203 1888.22 328.584C1889.03 327.944 1889.66 327.048 1890.11 325.896C1890.58 324.744 1890.81 323.379 1890.81 321.8C1890.81 320.2 1890.58 318.835 1890.11 317.704C1889.66 316.552 1889.03 315.667 1888.22 315.048C1887.41 314.429 1886.47 314.12 1885.4 314.12C1884.34 314.12 1883.4 314.429 1882.59 315.048C1881.78 315.667 1881.14 316.552 1880.67 317.704C1880.22 318.835 1880 320.2 1880 321.8C1880 323.379 1880.22 324.744 1880.67 325.896C1881.14 327.048 1881.78 327.944 1882.59 328.584C1883.4 329.203 1884.34 329.512 1885.4 329.512ZM1906.66 333.384C1904.63 333.384 1902.88 332.893 1901.41 331.912C1899.94 330.931 1898.81 329.576 1898.02 327.848C1897.25 326.099 1896.86 324.083 1896.86 321.8C1896.86 319.517 1897.25 317.512 1898.02 315.784C1898.81 314.035 1899.93 312.669 1901.38 311.688C1902.85 310.707 1904.61 310.216 1906.66 310.216C1908.7 310.216 1910.45 310.707 1911.9 311.688C1913.38 312.669 1914.5 314.035 1915.26 315.784C1916.05 317.512 1916.45 319.517 1916.45 321.8C1916.45 324.083 1916.05 326.099 1915.26 327.848C1914.5 329.576 1913.38 330.931 1911.9 331.912C1910.45 332.893 1908.7 333.384 1906.66 333.384ZM1906.66 329.512C1907.72 329.512 1908.66 329.203 1909.47 328.584C1910.28 327.944 1910.91 327.048 1911.36 325.896C1911.83 324.744 1912.06 323.379 1912.06 321.8C1912.06 320.2 1911.83 318.835 1911.36 317.704C1910.91 316.552 1910.28 315.667 1909.47 315.048C1908.66 314.429 1907.72 314.12 1906.66 314.12C1905.59 314.12 1904.65 314.429 1903.84 315.048C1903.03 315.667 1902.39 316.552 1901.92 317.704C1901.47 318.835 1901.25 320.2 1901.25 321.8C1901.25 323.379 1901.47 324.744 1901.92 325.896C1902.39 327.048 1903.03 327.944 1903.84 328.584C1904.65 329.203 1905.59 329.512 1906.66 329.512Z" fill="white"/>
<ellipse opacity="0.3" cx="960" cy="416" rx="1211" ry="219" stroke="white" stroke-width="40" stroke-dasharray="1 20"/>
<path d="M224.916 300V295.936H213.908V292.512L224.34 277.6H229.236V292.192H232.148V295.936H229.236V300H224.916ZM218.516 292.192H225.204V282.368L218.516 292.192ZM243.265 300.384C241.238 300.384 239.489 299.893 238.017 298.912C236.545 297.931 235.414 296.576 234.625 294.848C233.857 293.099 233.473 291.083 233.473 288.8C233.473 286.517 233.857 284.512 234.625 282.784C235.414 281.035 236.534 279.669 237.985 278.688C239.457 277.707 241.217 277.216 243.265 277.216C245.313 277.216 247.062 277.707 248.513 278.688C249.985 279.669 251.105 281.035 251.873 282.784C252.662 284.512 253.057 286.517 253.057 288.8C253.057 291.083 252.662 293.099 251.873 294.848C251.105 296.576 249.985 297.931 248.513 298.912C247.062 299.893 245.313 300.384 243.265 300.384ZM243.265 296.512C244.331 296.512 245.27 296.203 246.081 295.584C246.891 294.944 247.521 294.048 247.969 292.896C248.438 291.744 248.673 290.379 248.673 288.8C248.673 287.2 248.438 285.835 247.969 284.704C247.521 283.552 246.891 282.667 246.081 282.048C245.27 281.429 244.331 281.12 243.265 281.12C242.198 281.12 241.259 281.429 240.449 282.048C239.638 282.667 238.998 283.552 238.529 284.704C238.081 285.835 237.857 287.2 237.857 288.8C237.857 290.379 238.081 291.744 238.529 292.896C238.998 294.048 239.638 294.944 240.449 295.584C241.259 296.203 242.198 296.512 243.265 296.512Z" fill="white"/>
<path d="M1255.24 261V243.56L1251.27 244.616V241.16L1257.1 238.6H1259.72V261H1255.24ZM1273.1 261V256.936H1262.1V253.512L1272.53 238.6H1277.42V253.192H1280.34V256.936H1277.42V261H1273.1ZM1266.7 253.192H1273.39V243.368L1266.7 253.192ZM1291.45 261.384C1289.43 261.384 1287.68 260.893 1286.2 259.912C1284.73 258.931 1283.6 257.576 1282.81 255.848C1282.04 254.099 1281.66 252.083 1281.66 249.8C1281.66 247.517 1282.04 245.512 1282.81 243.784C1283.6 242.035 1284.72 240.669 1286.17 239.688C1287.64 238.707 1289.4 238.216 1291.45 238.216C1293.5 238.216 1295.25 238.707 1296.7 239.688C1298.17 240.669 1299.29 242.035 1300.06 243.784C1300.85 245.512 1301.24 247.517 1301.24 249.8C1301.24 252.083 1300.85 254.099 1300.06 255.848C1299.29 257.576 1298.17 258.931 1296.7 259.912C1295.25 260.893 1293.5 261.384 1291.45 261.384ZM1291.45 257.512C1292.52 257.512 1293.46 257.203 1294.27 256.584C1295.08 255.944 1295.71 255.048 1296.16 253.896C1296.63 252.744 1296.86 251.379 1296.86 249.8C1296.86 248.2 1296.63 246.835 1296.16 245.704C1295.71 244.552 1295.08 243.667 1294.27 243.048C1293.46 242.429 1292.52 242.12 1291.45 242.12C1290.39 242.12 1289.45 242.429 1288.64 243.048C1287.83 243.667 1287.19 244.552 1286.72 245.704C1286.27 246.835 1286.04 248.2 1286.04 249.8C1286.04 251.379 1286.27 252.744 1286.72 253.896C1287.19 255.048 1287.83 255.944 1288.64 256.584C1289.45 257.203 1290.39 257.512 1291.45 257.512Z" fill="white"/>
<path d="M636.361 260.384C634.847 260.384 633.46 260.107 632.201 259.552C630.964 258.997 629.983 258.219 629.257 257.216C628.532 256.213 628.169 255.051 628.169 253.728C628.169 252.811 628.319 251.979 628.617 251.232C628.937 250.485 629.375 249.824 629.929 249.248C630.484 248.672 631.145 248.235 631.913 247.936C630.953 247.488 630.175 246.848 629.577 246.016C629.001 245.184 628.713 244.245 628.713 243.2C628.713 242.155 629.001 241.173 629.577 240.256C630.153 239.339 631.007 238.603 632.137 238.048C633.268 237.493 634.676 237.216 636.361 237.216C638.047 237.216 639.455 237.493 640.585 238.048C641.716 238.603 642.569 239.339 643.145 240.256C643.721 241.173 644.009 242.155 644.009 243.2C644.009 244.224 643.711 245.163 643.113 246.016C642.537 246.848 641.769 247.488 640.809 247.936C641.577 248.256 642.239 248.704 642.793 249.28C643.369 249.835 643.807 250.485 644.105 251.232C644.425 251.979 644.585 252.811 644.585 253.728C644.585 255.051 644.212 256.213 643.465 257.216C642.74 258.219 641.759 258.997 640.521 259.552C639.284 260.107 637.897 260.384 636.361 260.384ZM636.361 256.768C637.684 256.768 638.676 256.448 639.337 255.808C639.999 255.168 640.329 254.357 640.329 253.376C640.329 252.288 639.977 251.435 639.273 250.816C638.591 250.176 637.62 249.856 636.361 249.856C635.124 249.856 634.143 250.176 633.417 250.816C632.713 251.435 632.361 252.288 632.361 253.376C632.361 254.357 632.703 255.168 633.385 255.808C634.068 256.448 635.06 256.768 636.361 256.768ZM636.361 246.688C637.449 246.688 638.281 246.411 638.857 245.856C639.455 245.301 639.753 244.587 639.753 243.712C639.753 242.773 639.455 242.048 638.857 241.536C638.281 241.003 637.449 240.736 636.361 240.736C635.295 240.736 634.463 241.003 633.865 241.536C633.268 242.048 632.969 242.784 632.969 243.744C632.969 244.597 633.268 245.301 633.865 245.856C634.463 246.411 635.295 246.688 636.361 246.688ZM656.483 260.384C654.457 260.384 652.707 259.893 651.235 258.912C649.763 257.931 648.633 256.576 647.843 254.848C647.075 253.099 646.691 251.083 646.691 248.8C646.691 246.517 647.075 244.512 647.843 242.784C648.633 241.035 649.753 239.669 651.203 238.688C652.675 237.707 654.435 237.216 656.483 237.216C658.531 237.216 660.281 237.707 661.731 238.688C663.203 239.669 664.323 241.035 665.091 242.784C665.881 244.512 666.275 246.517 666.275 248.8C666.275 251.083 665.881 253.099 665.091 254.848C664.323 256.576 663.203 257.931 661.731 258.912C660.281 259.893 658.531 260.384 656.483 260.384ZM656.483 256.512C657.55 256.512 658.489 256.203 659.299 255.584C660.11 254.944 660.739 254.048 661.187 252.896C661.657 251.744 661.891 250.379 661.891 248.8C661.891 247.2 661.657 245.835 661.187 244.704C660.739 243.552 660.11 242.667 659.299 242.048C658.489 241.429 657.55 241.12 656.483 241.12C655.417 241.12 654.478 241.429 653.667 242.048C652.857 242.667 652.217 243.552 651.747 244.704C651.299 245.835 651.075 247.2 651.075 248.8C651.075 250.379 651.299 251.744 651.747 252.896C652.217 254.048 652.857 254.944 653.667 255.584C654.478 256.203 655.417 256.512 656.483 256.512Z" fill="white"/>
<path d="M836.381 256V238.56L832.413 239.616V236.16L838.237 233.6H840.861V256H836.381ZM853.061 256.384C851.034 256.384 849.285 255.893 847.813 254.912C846.341 253.931 845.21 252.576 844.421 250.848C843.653 249.099 843.269 247.083 843.269 244.8C843.269 242.517 843.653 240.512 844.421 238.784C845.21 237.035 846.33 235.669 847.781 234.688C849.253 233.707 851.013 233.216 853.061 233.216C855.109 233.216 856.858 233.707 858.309 234.688C859.781 235.669 860.901 237.035 861.669 238.784C862.458 240.512 862.853 242.517 862.853 244.8C862.853 247.083 862.458 249.099 861.669 250.848C860.901 252.576 859.781 253.931 858.309 254.912C856.858 255.893 855.109 256.384 853.061 256.384ZM853.061 252.512C854.128 252.512 855.066 252.203 855.877 251.584C856.688 250.944 857.317 250.048 857.765 248.896C858.234 247.744 858.469 246.379 858.469 244.8C858.469 243.2 858.234 241.835 857.765 240.704C857.317 239.552 856.688 238.667 855.877 238.048C855.066 237.429 854.128 237.12 853.061 237.12C851.994 237.12 851.056 237.429 850.245 238.048C849.434 238.667 848.794 239.552 848.325 240.704C847.877 241.835 847.653 243.2 847.653 244.8C847.653 246.379 847.877 247.744 848.325 248.896C848.794 250.048 849.434 250.944 850.245 251.584C851.056 252.203 851.994 252.512 853.061 252.512ZM874.312 256.384C872.285 256.384 870.536 255.893 869.064 254.912C867.592 253.931 866.461 252.576 865.672 250.848C864.904 249.099 864.52 247.083 864.52 244.8C864.52 242.517 864.904 240.512 865.672 238.784C866.461 237.035 867.581 235.669 869.032 234.688C870.504 233.707 872.264 233.216 874.312 233.216C876.36 233.216 878.109 233.707 879.56 234.688C881.032 235.669 882.152 237.035 882.92 238.784C883.709 240.512 884.104 242.517 884.104 244.8C884.104 247.083 883.709 249.099 882.92 250.848C882.152 252.576 881.032 253.931 879.56 254.912C878.109 255.893 876.36 256.384 874.312 256.384ZM874.312 252.512C875.379 252.512 876.317 252.203 877.128 251.584C877.939 250.944 878.568 250.048 879.016 248.896C879.485 247.744 879.72 246.379 879.72 244.8C879.72 243.2 879.485 241.835 879.016 240.704C878.568 239.552 877.939 238.667 877.128 238.048C876.317 237.429 875.379 237.12 874.312 237.12C873.245 237.12 872.307 237.429 871.496 238.048C870.685 238.667 870.045 239.552 869.576 240.704C869.128 241.835 868.904 243.2 868.904 244.8C868.904 246.379 869.128 247.744 869.576 248.896C870.045 250.048 870.685 250.944 871.496 251.584C872.307 252.203 873.245 252.512 874.312 252.512Z" fill="white"/>
<path d="M430.858 273.384C429.172 273.384 427.743 273.075 426.57 272.456C425.418 271.837 424.49 271.005 423.786 269.96C423.103 268.915 422.602 267.752 422.282 266.472C421.983 265.171 421.834 263.859 421.834 262.536C421.834 260.019 422.186 257.843 422.89 256.008C423.594 254.173 424.607 252.755 425.93 251.752C427.252 250.728 428.852 250.216 430.73 250.216C432.308 250.216 433.642 250.525 434.73 251.144C435.818 251.741 436.66 252.531 437.258 253.512C437.855 254.493 438.207 255.549 438.314 256.68H434.282C434.111 255.741 433.716 255.027 433.098 254.536C432.479 254.024 431.679 253.768 430.698 253.768C429.78 253.768 428.98 254.045 428.298 254.6C427.615 255.155 427.082 255.987 426.698 257.096C426.335 258.205 426.122 259.603 426.058 261.288C426.058 261.309 426.058 261.341 426.058 261.384C426.058 261.427 426.058 261.459 426.058 261.48C426.399 260.904 426.847 260.392 427.402 259.944C427.956 259.496 428.596 259.144 429.322 258.888C430.047 258.632 430.815 258.504 431.626 258.504C432.863 258.504 434.015 258.803 435.082 259.4C436.148 259.997 437.012 260.84 437.674 261.928C438.335 263.016 438.666 264.307 438.666 265.8C438.666 267.144 438.335 268.403 437.674 269.576C437.034 270.728 436.127 271.656 434.954 272.36C433.78 273.043 432.415 273.384 430.858 273.384ZM430.602 269.672C431.37 269.672 432.042 269.512 432.618 269.192C433.215 268.872 433.684 268.435 434.026 267.88C434.367 267.304 434.538 266.653 434.538 265.928C434.538 265.16 434.367 264.499 434.026 263.944C433.684 263.389 433.215 262.952 432.618 262.632C432.02 262.312 431.338 262.152 430.57 262.152C429.823 262.152 429.151 262.312 428.554 262.632C427.956 262.952 427.476 263.4 427.114 263.976C426.772 264.531 426.602 265.171 426.602 265.896C426.602 266.643 426.772 267.304 427.114 267.88C427.476 268.435 427.956 268.872 428.554 269.192C429.172 269.512 429.855 269.672 430.602 269.672ZM450.499 273.384C448.472 273.384 446.723 272.893 445.251 271.912C443.779 270.931 442.648 269.576 441.859 267.848C441.091 266.099 440.707 264.083 440.707 261.8C440.707 259.517 441.091 257.512 441.859 255.784C442.648 254.035 443.768 252.669 445.219 251.688C446.691 250.707 448.451 250.216 450.499 250.216C452.547 250.216 454.296 250.707 455.747 251.688C457.219 252.669 458.339 254.035 459.107 255.784C459.896 257.512 460.291 259.517 460.291 261.8C460.291 264.083 459.896 266.099 459.107 267.848C458.339 269.576 457.219 270.931 455.747 271.912C454.296 272.893 452.547 273.384 450.499 273.384ZM450.499 269.512C451.566 269.512 452.504 269.203 453.315 268.584C454.126 267.944 454.755 267.048 455.203 265.896C455.672 264.744 455.907 263.379 455.907 261.8C455.907 260.2 455.672 258.835 455.203 257.704C454.755 256.552 454.126 255.667 453.315 255.048C452.504 254.429 451.566 254.12 450.499 254.12C449.432 254.12 448.494 254.429 447.683 255.048C446.872 255.667 446.232 256.552 445.763 257.704C445.315 258.835 445.091 260.2 445.091 261.8C445.091 263.379 445.315 264.744 445.763 265.896C446.232 267.048 446.872 267.944 447.683 268.584C448.494 269.203 449.432 269.512 450.499 269.512Z" fill="white"/>
<path d="M1044.97 256V238.56L1041.01 239.616V236.16L1046.83 233.6H1049.45V256H1044.97ZM1051.99 256V252.832C1053.36 251.744 1054.68 250.656 1055.96 249.568C1057.26 248.48 1058.42 247.403 1059.45 246.336C1060.47 245.248 1061.28 244.192 1061.88 243.168C1062.48 242.144 1062.77 241.152 1062.77 240.192C1062.77 239.595 1062.67 239.051 1062.45 238.56C1062.24 238.048 1061.9 237.643 1061.43 237.344C1060.98 237.024 1060.39 236.864 1059.64 236.864C1058.89 236.864 1058.26 237.035 1057.75 237.376C1057.24 237.717 1056.85 238.176 1056.6 238.752C1056.34 239.307 1056.21 239.936 1056.21 240.64H1052.02C1052.09 238.997 1052.46 237.621 1053.14 236.512C1053.83 235.403 1054.74 234.581 1055.89 234.048C1057.05 233.493 1058.34 233.216 1059.77 233.216C1061.35 233.216 1062.68 233.515 1063.77 234.112C1064.85 234.688 1065.68 235.477 1066.23 236.48C1066.81 237.483 1067.09 238.635 1067.09 239.936C1067.09 240.917 1066.91 241.877 1066.55 242.816C1066.21 243.755 1065.72 244.672 1065.08 245.568C1064.46 246.443 1063.76 247.285 1062.97 248.096C1062.18 248.907 1061.36 249.685 1060.5 250.432C1059.65 251.157 1058.82 251.84 1058.01 252.48H1067.64V256H1051.99ZM1078.72 256.384C1076.69 256.384 1074.94 255.893 1073.47 254.912C1072 253.931 1070.87 252.576 1070.08 250.848C1069.31 249.099 1068.93 247.083 1068.93 244.8C1068.93 242.517 1069.31 240.512 1070.08 238.784C1070.87 237.035 1071.99 235.669 1073.44 234.688C1074.91 233.707 1076.67 233.216 1078.72 233.216C1080.77 233.216 1082.52 233.707 1083.97 234.688C1085.44 235.669 1086.56 237.035 1087.33 238.784C1088.12 240.512 1088.51 242.517 1088.51 244.8C1088.51 247.083 1088.12 249.099 1087.33 250.848C1086.56 252.576 1085.44 253.931 1083.97 254.912C1082.52 255.893 1080.77 256.384 1078.72 256.384ZM1078.72 252.512C1079.79 252.512 1080.72 252.203 1081.53 251.584C1082.35 250.944 1082.97 250.048 1083.42 248.896C1083.89 247.744 1084.13 246.379 1084.13 244.8C1084.13 243.2 1083.89 241.835 1083.42 240.704C1082.97 239.552 1082.35 238.667 1081.53 238.048C1080.72 237.429 1079.79 237.12 1078.72 237.12C1077.65 237.12 1076.71 237.429 1075.9 238.048C1075.09 238.667 1074.45 239.552 1073.98 240.704C1073.53 241.835 1073.31 243.2 1073.31 244.8C1073.31 246.379 1073.53 247.744 1073.98 248.896C1074.45 250.048 1075.09 250.944 1075.9 251.584C1076.71 252.203 1077.65 252.512 1078.72 252.512Z" fill="white"/>
<path d="M1459.01 278V260.56L1455.04 261.616V258.16L1460.86 255.6H1463.49V278H1459.01ZM1475.05 278.384C1473.36 278.384 1471.93 278.075 1470.76 277.456C1469.61 276.837 1468.68 276.005 1467.97 274.96C1467.29 273.915 1466.79 272.752 1466.47 271.472C1466.17 270.171 1466.02 268.859 1466.02 267.536C1466.02 265.019 1466.37 262.843 1467.08 261.008C1467.78 259.173 1468.8 257.755 1470.12 256.752C1471.44 255.728 1473.04 255.216 1474.92 255.216C1476.5 255.216 1477.83 255.525 1478.92 256.144C1480.01 256.741 1480.85 257.531 1481.45 258.512C1482.04 259.493 1482.4 260.549 1482.5 261.68H1478.47C1478.3 260.741 1477.9 260.027 1477.29 259.536C1476.67 259.024 1475.87 258.768 1474.89 258.768C1473.97 258.768 1473.17 259.045 1472.49 259.6C1471.8 260.155 1471.27 260.987 1470.89 262.096C1470.52 263.205 1470.31 264.603 1470.25 266.288C1470.25 266.309 1470.25 266.341 1470.25 266.384C1470.25 266.427 1470.25 266.459 1470.25 266.48C1470.59 265.904 1471.04 265.392 1471.59 264.944C1472.14 264.496 1472.78 264.144 1473.51 263.888C1474.24 263.632 1475 263.504 1475.81 263.504C1477.05 263.504 1478.2 263.803 1479.27 264.4C1480.34 264.997 1481.2 265.84 1481.86 266.928C1482.52 268.016 1482.85 269.307 1482.85 270.8C1482.85 272.144 1482.52 273.403 1481.86 274.576C1481.22 275.728 1480.32 276.656 1479.14 277.36C1477.97 278.043 1476.6 278.384 1475.05 278.384ZM1474.79 274.672C1475.56 274.672 1476.23 274.512 1476.81 274.192C1477.4 273.872 1477.87 273.435 1478.21 272.88C1478.56 272.304 1478.73 271.653 1478.73 270.928C1478.73 270.16 1478.56 269.499 1478.21 268.944C1477.87 268.389 1477.4 267.952 1476.81 267.632C1476.21 267.312 1475.53 267.152 1474.76 267.152C1474.01 267.152 1473.34 267.312 1472.74 267.632C1472.14 267.952 1471.66 268.4 1471.3 268.976C1470.96 269.531 1470.79 270.171 1470.79 270.896C1470.79 271.643 1470.96 272.304 1471.3 272.88C1471.66 273.435 1472.14 273.872 1472.74 274.192C1473.36 274.512 1474.04 274.672 1474.79 274.672ZM1494.69 278.384C1492.66 278.384 1490.91 277.893 1489.44 276.912C1487.97 275.931 1486.84 274.576 1486.05 272.848C1485.28 271.099 1484.9 269.083 1484.9 266.8C1484.9 264.517 1485.28 262.512 1486.05 260.784C1486.84 259.035 1487.96 257.669 1489.41 256.688C1490.88 255.707 1492.64 255.216 1494.69 255.216C1496.74 255.216 1498.48 255.707 1499.94 256.688C1501.41 257.669 1502.53 259.035 1503.3 260.784C1504.08 262.512 1504.48 264.517 1504.48 266.8C1504.48 269.083 1504.08 271.099 1503.3 272.848C1502.53 274.576 1501.41 275.931 1499.94 276.912C1498.48 277.893 1496.74 278.384 1494.69 278.384ZM1494.69 274.512C1495.75 274.512 1496.69 274.203 1497.5 273.584C1498.31 272.944 1498.94 272.048 1499.39 270.896C1499.86 269.744 1500.1 268.379 1500.1 266.8C1500.1 265.2 1499.86 263.835 1499.39 262.704C1498.94 261.552 1498.31 260.667 1497.5 260.048C1496.69 259.429 1495.75 259.12 1494.69 259.12C1493.62 259.12 1492.68 259.429 1491.87 260.048C1491.06 260.667 1490.42 261.552 1489.95 262.704C1489.5 263.835 1489.28 265.2 1489.28 266.8C1489.28 268.379 1489.5 269.744 1489.95 270.896C1490.42 272.048 1491.06 272.944 1491.87 273.584C1492.68 274.203 1493.62 274.512 1494.69 274.512Z" fill="white"/>
<path d="M1673.02 300V282.56L1669.05 283.616V280.16L1674.88 277.6H1677.5V300H1673.02ZM1688.55 300.384C1687.03 300.384 1685.65 300.107 1684.39 299.552C1683.15 298.997 1682.17 298.219 1681.45 297.216C1680.72 296.213 1680.36 295.051 1680.36 293.728C1680.36 292.811 1680.51 291.979 1680.81 291.232C1681.13 290.485 1681.56 289.824 1682.12 289.248C1682.67 288.672 1683.33 288.235 1684.1 287.936C1683.14 287.488 1682.36 286.848 1681.77 286.016C1681.19 285.184 1680.9 284.245 1680.9 283.2C1680.9 282.155 1681.19 281.173 1681.77 280.256C1682.34 279.339 1683.19 278.603 1684.33 278.048C1685.46 277.493 1686.86 277.216 1688.55 277.216C1690.23 277.216 1691.64 277.493 1692.77 278.048C1693.9 278.603 1694.76 279.339 1695.33 280.256C1695.91 281.173 1696.2 282.155 1696.2 283.2C1696.2 284.224 1695.9 285.163 1695.3 286.016C1694.73 286.848 1693.96 287.488 1693 287.936C1693.77 288.256 1694.43 288.704 1694.98 289.28C1695.56 289.835 1695.99 290.485 1696.29 291.232C1696.61 291.979 1696.77 292.811 1696.77 293.728C1696.77 295.051 1696.4 296.213 1695.65 297.216C1694.93 298.219 1693.95 298.997 1692.71 299.552C1691.47 300.107 1690.09 300.384 1688.55 300.384ZM1688.55 296.768C1689.87 296.768 1690.86 296.448 1691.53 295.808C1692.19 295.168 1692.52 294.357 1692.52 293.376C1692.52 292.288 1692.17 291.435 1691.46 290.816C1690.78 290.176 1689.81 289.856 1688.55 289.856C1687.31 289.856 1686.33 290.176 1685.61 290.816C1684.9 291.435 1684.55 292.288 1684.55 293.376C1684.55 294.357 1684.89 295.168 1685.57 295.808C1686.26 296.448 1687.25 296.768 1688.55 296.768ZM1688.55 286.688C1689.64 286.688 1690.47 286.411 1691.05 285.856C1691.64 285.301 1691.94 284.587 1691.94 283.712C1691.94 282.773 1691.64 282.048 1691.05 281.536C1690.47 281.003 1689.64 280.736 1688.55 280.736C1687.48 280.736 1686.65 281.003 1686.05 281.536C1685.46 282.048 1685.16 282.784 1685.16 283.744C1685.16 284.597 1685.46 285.301 1686.05 285.856C1686.65 286.411 1687.48 286.688 1688.55 286.688ZM1708.67 300.384C1706.64 300.384 1704.9 299.893 1703.42 298.912C1701.95 297.931 1700.82 296.576 1700.03 294.848C1699.26 293.099 1698.88 291.083 1698.88 288.8C1698.88 286.517 1699.26 284.512 1700.03 282.784C1700.82 281.035 1701.94 279.669 1703.39 278.688C1704.86 277.707 1706.62 277.216 1708.67 277.216C1710.72 277.216 1712.47 277.707 1713.92 278.688C1715.39 279.669 1716.51 281.035 1717.28 282.784C1718.07 284.512 1718.46 286.517 1718.46 288.8C1718.46 291.083 1718.07 293.099 1717.28 294.848C1716.51 296.576 1715.39 297.931 1713.92 298.912C1712.47 299.893 1710.72 300.384 1708.67 300.384ZM1708.67 296.512C1709.74 296.512 1710.68 296.203 1711.49 295.584C1712.3 294.944 1712.93 294.048 1713.38 292.896C1713.84 291.744 1714.08 290.379 1714.08 288.8C1714.08 287.2 1713.84 285.835 1713.38 284.704C1712.93 283.552 1712.3 282.667 1711.49 282.048C1710.68 281.429 1709.74 281.12 1708.67 281.12C1707.6 281.12 1706.67 281.429 1705.86 282.048C1705.04 282.667 1704.4 283.552 1703.94 284.704C1703.49 285.835 1703.26 287.2 1703.26 288.8C1703.26 290.379 1703.49 291.744 1703.94 292.896C1704.4 294.048 1705.04 294.944 1705.86 295.584C1706.67 296.203 1707.6 296.512 1708.67 296.512Z" fill="white"/>
</g>
<defs>
<clipPath id="clip0_2588_643">
<rect width="1920" height="435" fill="white"/>
</clipPath>
</defs>
</svg>
