<svg width="148" height="151" viewBox="0 0 148 151" fill="none" xmlns="http://www.w3.org/2000/svg">
<g filter="url(#filter0_d_2011_7577)">
<path d="M87.5057 24.1026C91.4296 24.0792 93.3916 24.0674 95.1601 24.7876C96.9287 25.5078 98.3243 26.8868 101.116 29.6449L120.629 48.9263C123.42 51.6843 124.816 53.0633 125.557 54.8231C126.298 56.5829 126.31 58.5449 126.334 62.4688L126.498 89.9009C126.521 93.8249 126.533 95.7869 125.813 97.5554C125.093 99.3239 123.714 100.72 120.956 103.511L101.674 123.024C98.9162 125.816 97.5372 127.211 95.7774 127.952C94.0176 128.694 92.0556 128.706 88.1317 128.729L60.6995 128.893C56.7756 128.917 54.8136 128.928 53.0451 128.208C51.2765 127.488 49.8809 126.109 47.0897 123.351L27.5762 104.069C24.7849 101.311 23.3893 99.9324 22.648 98.1726C21.9067 96.4128 21.895 94.4509 21.8715 90.5269L21.7074 63.0948C21.6839 59.1709 21.6722 57.2089 22.3923 55.4403C23.1125 53.6718 24.4916 52.2762 27.2496 49.4849L46.531 29.9714C49.289 27.1802 50.668 25.7846 52.4278 25.0433C54.1876 24.302 56.1496 24.2902 60.0735 24.2668L87.5057 24.1026Z" fill="url(#paint0_linear_2011_7577)"/>
<path d="M94.9336 25.3429C96.5659 26.0076 97.8678 27.2791 100.694 30.0715L120.208 49.353C123.034 52.1454 124.32 53.4319 125.005 55.0561C125.689 56.6803 125.71 58.4998 125.734 62.4726L125.898 89.905C125.922 93.8773 125.922 95.6965 125.257 97.3286C124.592 98.9609 123.322 100.263 120.529 103.089L101.248 122.603C98.4552 125.429 97.1689 126.716 95.5446 127.4C93.9204 128.084 92.101 128.106 88.1281 128.129L60.6957 128.293C56.723 128.317 54.9034 128.317 53.2712 127.652C51.6391 126.987 50.3372 125.717 47.5116 122.925L27.9978 103.643C25.1719 100.851 23.8849 99.5642 23.2007 97.94C22.5165 96.3158 22.4951 94.4963 22.4713 90.5235L22.3073 63.0911C22.2835 59.1183 22.2832 57.2985 22.9479 55.6662C23.6126 54.0341 24.8841 52.7326 27.6761 49.907L46.9577 30.3932C49.7501 27.5671 51.0365 26.2803 52.6607 25.5961C54.2849 24.9119 56.1044 24.8905 60.0772 24.8667L87.5097 24.7027C91.482 24.6789 93.3015 24.6783 94.9336 25.3429Z" stroke="#0048FF" stroke-width="1.2"/>
</g>
<g style="mix-blend-mode:soft-light">
<mask id="mask0_2011_7577" style="mask-type:alpha" maskUnits="userSpaceOnUse" x="20" y="21" width="104" height="106">
<path d="M92.5496 22.5598C94.2286 23.2591 95.563 24.5949 98.4107 27.4731L117.208 46.4714C120.011 49.3042 121.312 50.6311 122.004 52.2992C122.695 53.9674 122.714 55.8256 122.737 59.8101L122.899 87.2839C122.921 91.2062 122.924 93.0353 122.271 94.6754C121.618 96.3155 120.367 97.6224 117.672 100.413L98.7919 119.955C96.0541 122.789 94.7716 124.105 93.1377 124.804C91.5035 125.504 89.6657 125.524 85.7254 125.548L59.3002 125.71C55.2968 125.735 53.4297 125.737 51.7507 125.038C50.0718 124.338 48.738 123.003 45.8905 120.125L27.0927 101.126C24.2898 98.2932 22.9886 96.9655 22.297 95.2973C21.6057 93.6293 21.5866 91.7714 21.5633 87.7873L21.4019 60.3136C21.3789 56.3913 21.3773 54.5625 22.0302 52.9224C22.6832 51.2823 23.9334 49.975 26.6287 47.1849L45.5085 27.6423C48.2465 24.808 49.5289 23.4916 51.1631 22.7922C52.7972 22.0927 54.6347 22.0734 58.575 22.0493L85.0011 21.8876C89.0041 21.8631 90.8707 21.8605 92.5496 22.5598Z" fill="url(#paint1_linear_2011_7577)" stroke="#00BDFF" stroke-width="0.959735"/>
</mask>
<g mask="url(#mask0_2011_7577)">
<rect width="137.689" height="35.2945" transform="matrix(0.691012 -0.722844 0.707053 0.70716 20.5312 106.426)" fill="#005BF7"/>
<rect width="125.7" height="35.2945" transform="matrix(-1 0 0.0225839 -0.999745 149.016 88.5859)" fill="#005BF7"/>
</g>
</g>
<g filter="url(#filter1_ddddd_2011_7577)">
<path d="M67.5127 56.9519V51.8356C67.5147 51.585 67.4541 51.3376 67.3377 51.1138C67.2214 50.8899 67.0513 50.6961 66.8425 50.548C66.6337 50.4 66.391 50.3021 66.1355 50.2623C65.8799 50.2225 65.6184 50.242 65.3718 50.3191C62.846 51.1289 60.4486 52.2762 58.251 53.7276C58.0322 53.8742 57.8532 54.0703 57.7309 54.2988C57.6086 54.5273 57.5449 54.7813 57.5469 55.0388V56.9519C57.5469 57.3728 57.719 57.7766 58.0262 58.0745C58.3345 58.3724 58.7511 58.54 59.1857 58.5406H65.869C66.0848 58.541 66.2986 58.5001 66.4974 58.4204C66.6973 58.3407 66.8783 58.2237 67.0314 58.0761C67.1836 57.9286 67.3049 57.7533 67.3874 57.5604C67.47 57.3675 67.5127 57.1607 67.5127 56.9519Z" fill="#E8F1FF"/>
<path d="M79.4443 56.9544V50.6903C79.4424 50.2992 79.2922 49.9226 79.0227 49.6313C78.7532 49.3399 78.3823 49.154 77.9816 49.1085C75.6428 48.8284 73.2761 48.8284 70.9373 49.1085C70.5366 49.154 70.1657 49.3401 69.8972 49.6314C69.6277 49.9228 69.4786 50.2994 69.4766 50.6903V56.9544C69.4766 57.3754 69.6486 57.7791 69.9559 58.077C70.2641 58.3749 70.6808 58.5426 71.1153 58.5432H77.7986C78.0144 58.5435 78.2282 58.5026 78.4281 58.423C78.627 58.3433 78.8089 58.2263 78.9611 58.0788C79.1142 57.9313 79.2355 57.756 79.3191 57.5631C79.4016 57.3702 79.4443 57.1634 79.4443 56.9544Z" fill="#E8F1FF"/>
<path d="M91.3799 56.9519V55.0388C91.3819 54.7813 91.3182 54.5273 91.1959 54.2988C91.0726 54.0703 90.8946 53.8742 90.6759 53.7276C88.4783 52.2757 86.0808 51.1285 83.554 50.3191C83.3084 50.242 83.0459 50.2225 82.7903 50.2623C82.5348 50.3021 82.2931 50.4 82.0833 50.548C81.8745 50.6961 81.7055 50.8899 81.5891 51.1138C81.4718 51.3376 81.4121 51.585 81.4141 51.8356V56.9519C81.4131 57.1604 81.4559 57.3669 81.5374 57.5597C81.6199 57.7524 81.7413 57.9276 81.8934 58.0752C82.0455 58.2227 82.2265 58.3398 82.4254 58.4197C82.6243 58.4995 82.8371 58.5406 83.0529 58.5406H89.7352C89.952 58.541 90.1647 58.5001 90.3646 58.4204C90.5645 58.3407 90.7455 58.2237 90.8976 58.0761C91.0507 57.9286 91.1721 57.7533 91.2546 57.5604C91.3371 57.3675 91.3799 57.1607 91.3799 56.9519Z" fill="#E8F1FF"/>
<path d="M53.9287 60.4532H51.9519C51.6854 60.4517 51.4229 60.5128 51.1862 60.6315C50.9496 60.7503 50.7467 60.9228 50.5946 61.1344C49.096 63.263 47.9097 65.5823 47.0704 68.0261C46.9909 68.2649 46.972 68.5184 47.0138 68.7657C47.0555 69.0131 47.1569 69.2474 47.3111 69.4494C47.4642 69.6515 47.6641 69.8155 47.8958 69.9282C48.1275 70.0409 48.383 70.099 48.6416 70.0979H53.9287C54.1445 70.0982 54.3583 70.0573 54.5572 69.9775C54.7561 69.8978 54.9381 69.7807 55.0902 69.6332C55.2424 69.4856 55.3637 69.3103 55.4462 69.1175C55.5287 68.9246 55.5705 68.7178 55.5705 68.5091V62.042C55.5695 61.6208 55.3965 61.217 55.0892 60.9192C54.7809 60.6214 54.3633 60.4537 53.9287 60.4532Z" fill="#E8F1FF"/>
<path d="M59.1886 60.4531H65.8709C66.3065 60.4531 66.7241 60.6205 67.0314 60.9185C67.3397 61.2164 67.5127 61.6205 67.5127 62.0419V68.509C67.5127 68.7177 67.4709 68.9244 67.3884 69.1174C67.3059 69.3103 67.1855 69.4856 67.0324 69.6331C66.8803 69.7807 66.6993 69.8978 66.4994 69.9775C66.3005 70.0573 66.0867 70.0981 65.8709 70.0978H59.1886C58.9729 70.0981 58.7591 70.0573 58.5602 69.9775C58.3603 69.8978 58.1793 69.7807 58.0272 69.6331C57.874 69.4856 57.7537 69.3103 57.6712 69.1174C57.5887 68.9244 57.5459 68.7177 57.5469 68.509V62.0419C57.5469 61.6207 57.7209 61.2169 58.0282 60.9191C58.3355 60.6213 58.7531 60.4537 59.1886 60.4531Z" fill="#E8F1FF"/>
<path d="M71.1183 60.4531H77.8126C78.2481 60.4531 78.6658 60.6205 78.974 60.9185C79.2813 61.2164 79.4543 61.6205 79.4543 62.0419V68.509C79.4543 68.7177 79.4126 68.9244 79.33 69.1174C79.2475 69.3103 79.1272 69.4856 78.974 69.6331C78.8219 69.7807 78.6409 69.8978 78.441 69.9775C78.2421 70.0573 78.0284 70.0981 77.8126 70.0978H71.1183C70.9025 70.0981 70.6888 70.0573 70.4899 69.9775C70.29 69.8978 70.109 69.7807 69.9569 69.6331C69.8037 69.4856 69.6834 69.3103 69.6009 69.1174C69.5183 68.9244 69.4756 68.7177 69.4766 68.509V62.0419C69.4766 61.6207 69.6506 61.2169 69.9579 60.9191C70.2661 60.6213 70.6828 60.4537 71.1183 60.4531Z" fill="#E8F1FF"/>
<path d="M53.9266 72.0039H47.4531C47.0494 72.0063 46.6596 72.1515 46.3583 72.4123C46.057 72.6731 45.8641 73.0314 45.8164 73.42C45.53 75.6832 45.53 77.9716 45.8164 80.2348C45.8641 80.6231 46.057 80.9812 46.3583 81.2416C46.6596 81.502 47.0494 81.6467 47.4531 81.6486H53.9266C54.1424 81.6489 54.3552 81.6079 54.5551 81.5283C54.7539 81.4485 54.9349 81.3315 55.0881 81.1839C55.2402 81.0364 55.3615 80.8611 55.444 80.6681C55.5266 80.4752 55.5683 80.2685 55.5683 80.0598V73.5926C55.5683 73.1713 55.3953 72.7672 55.0871 72.4692C54.7798 72.1713 54.3621 72.0039 53.9266 72.0039Z" fill="#E8F1FF"/>
<path d="M59.1886 72.0039H65.8709C66.0867 72.0036 66.3005 72.0445 66.4994 72.1242C66.6993 72.204 66.8803 72.3209 67.0324 72.4686C67.1855 72.6162 67.3059 72.7914 67.3884 72.9843C67.4709 73.1772 67.5127 73.3839 67.5127 73.5926V80.0598C67.5127 80.2685 67.4709 80.4752 67.3884 80.6681C67.3059 80.8611 67.1855 81.0364 67.0324 81.1839C66.8803 81.3315 66.6993 81.4485 66.4994 81.5283C66.3005 81.608 66.0867 81.6489 65.8709 81.6486H59.1886C58.9729 81.6489 58.7591 81.608 58.5602 81.5283C58.3603 81.4485 58.1793 81.3315 58.0272 81.1839C57.874 81.0364 57.7537 80.8611 57.6712 80.6681C57.5887 80.4752 57.5459 80.2685 57.5469 80.0598V73.5926C57.5469 73.1713 57.7199 72.7672 58.0272 72.4692C58.3354 72.1713 58.7531 72.0039 59.1886 72.0039Z" fill="#E8F1FF"/>
<path d="M71.1183 72.0039H77.8126C78.0284 72.0036 78.2421 72.0445 78.441 72.1242C78.6409 72.204 78.8219 72.3209 78.974 72.4686C79.1272 72.6162 79.2475 72.7914 79.33 72.9843C79.4126 73.1772 79.4543 73.3839 79.4543 73.5926V80.0598C79.4543 80.2685 79.4126 80.4752 79.33 80.6681C79.2475 80.8611 79.1272 81.0364 78.974 81.1839C78.8219 81.3315 78.6409 81.4485 78.441 81.5283C78.2421 81.608 78.0284 81.6489 77.8126 81.6486H71.1183C70.9025 81.6489 70.6888 81.608 70.4899 81.5283C70.29 81.4485 70.109 81.3315 69.9569 81.1839C69.8037 81.0364 69.6834 80.8611 69.6009 80.6681C69.5183 80.4752 69.4756 80.2685 69.4766 80.0598V73.5926C69.4766 73.1713 69.6496 72.7672 69.9569 72.4692C70.2651 72.1713 70.6828 72.0039 71.1183 72.0039Z" fill="#E8F1FF"/>
<path d="M83.0558 72.0039H89.7381C89.9539 72.0036 90.1677 72.0445 90.3666 72.1241C90.5665 72.2039 90.7474 72.3208 90.9006 72.4684C91.0527 72.616 91.174 72.7912 91.2566 72.9841C91.3401 73.177 91.3818 73.3838 91.3818 73.5926V80.0598C91.3818 80.2686 91.3401 80.4754 91.2566 80.6683C91.174 80.8613 91.0527 81.0365 90.9006 81.184C90.7474 81.3316 90.5665 81.4486 90.3666 81.5283C90.1677 81.608 89.9539 81.6489 89.7381 81.6486H83.0558C82.84 81.6489 82.6262 81.608 82.4264 81.5283C82.2275 81.4485 82.0465 81.3315 81.8934 81.1839C81.7412 81.0364 81.6199 80.8611 81.5384 80.6681C81.4558 80.4752 81.4131 80.2685 81.4141 80.0598V73.5926C81.4141 73.1713 81.5871 72.7672 81.8944 72.4692C82.2026 72.1713 82.6203 72.0039 83.0558 72.0039Z" fill="#E8F1FF"/>
<path d="M94.9972 81.6486H101.468C101.872 81.6467 102.263 81.5017 102.565 81.2409C102.867 80.9801 103.06 80.6214 103.107 80.2324C103.394 77.9694 103.394 75.6808 103.107 73.4177C103.059 73.0291 102.866 72.671 102.565 72.4107C102.262 72.1503 101.872 72.0056 101.468 72.0039H94.9972C94.5627 72.0039 94.145 72.1713 93.8368 72.4692C93.5285 72.7672 93.3555 73.1713 93.3555 73.5926V80.0598C93.3555 80.4812 93.5285 80.8853 93.8368 81.1832C94.145 81.4812 94.5627 81.6486 94.9972 81.6486Z" fill="#E8F1FF"/>
<path d="M71.1183 83.5547H77.8126C78.0284 83.5544 78.2421 83.5953 78.441 83.675C78.6409 83.7547 78.8219 83.8717 78.974 84.0193C79.1272 84.1669 79.2475 84.3421 79.33 84.5351C79.4126 84.728 79.4543 84.9347 79.4543 85.1434V91.6106C79.4543 91.8193 79.4126 92.026 79.33 92.2189C79.2475 92.4118 79.1272 92.587 78.974 92.7347C78.8219 92.8823 78.6409 92.9993 78.441 93.0791C78.2421 93.1587 78.0284 93.1997 77.8126 93.1994H71.1183C70.9025 93.1997 70.6888 93.1587 70.4899 93.0791C70.29 92.9993 70.109 92.8823 69.9569 92.7347C69.8037 92.587 69.6834 92.4118 69.6009 92.2189C69.5183 92.026 69.4756 91.8193 69.4766 91.6106V85.1434C69.4766 84.7221 69.6496 84.318 69.9569 84.02C70.2651 83.722 70.6828 83.5547 71.1183 83.5547Z" fill="#E8F1FF"/>
<path d="M83.0558 83.5547H89.7381C89.9539 83.5544 90.1677 83.5953 90.3666 83.6749C90.5665 83.7547 90.7474 83.8716 90.9006 84.0192C91.0527 84.1667 91.174 84.3419 91.2566 84.5349C91.3401 84.7278 91.3818 84.9346 91.3818 85.1434V91.6106C91.3818 91.8194 91.3401 92.0262 91.2566 92.2191C91.174 92.412 91.0527 92.5872 90.9006 92.7348C90.7474 92.8824 90.5665 92.9993 90.3666 93.0791C90.1677 93.1588 89.9539 93.1997 89.7381 93.1994H83.0558C82.84 93.1997 82.6262 93.1587 82.4264 93.0791C82.2275 92.9993 82.0465 92.8823 81.8934 92.7347C81.7412 92.587 81.6199 92.4118 81.5384 92.2189C81.4558 92.026 81.4131 91.8193 81.4141 91.6106V85.1434C81.4141 84.7221 81.5871 84.318 81.8944 84.02C82.2026 83.722 82.6203 83.5547 83.0558 83.5547Z" fill="#E8F1FF"/>
<path d="M94.9972 93.2017H96.9741C97.2406 93.2032 97.5031 93.1417 97.7398 93.0226C97.9754 92.9035 98.1783 92.7303 98.3294 92.5182C99.828 90.3896 101.013 88.0702 101.854 85.6264C101.933 85.3878 101.953 85.1344 101.911 84.887C101.869 84.6396 101.768 84.4053 101.615 84.2032C101.462 84.001 101.262 83.8369 101.03 83.7242C100.798 83.6115 100.543 83.5534 100.284 83.5547H94.9972C94.5627 83.5547 94.145 83.7218 93.8377 84.0192C93.5295 84.3167 93.3565 84.7201 93.3555 85.1412V91.6083C93.3555 91.8172 93.3982 92.0241 93.4798 92.2173C93.5623 92.4105 93.6836 92.5861 93.8358 92.734C93.9879 92.882 94.1689 92.9994 94.3688 93.0797C94.5676 93.1599 94.7814 93.2014 94.9972 93.2017Z" fill="#E8F1FF"/>
<path d="M57.547 96.6981V98.6135C57.544 98.8706 57.6076 99.1241 57.7299 99.3522C57.8523 99.5805 58.0303 99.7762 58.248 99.9223C60.4486 101.373 62.8461 102.521 65.3718 103.333C65.6185 103.409 65.88 103.428 66.1345 103.388C66.3901 103.348 66.6317 103.25 66.8406 103.102C67.0484 102.954 67.2184 102.76 67.3348 102.537C67.4511 102.314 67.5118 102.067 67.5108 101.817V96.6981C67.5108 96.4896 67.469 96.2831 67.3865 96.0902C67.3039 95.8975 67.1836 95.7224 67.0315 95.5749C66.8793 95.4273 66.6984 95.3101 66.4995 95.2303C66.2996 95.1504 66.0868 95.1093 65.871 95.1094H59.1887C58.7532 95.1094 58.3355 95.2767 58.0273 95.5747C57.72 95.8727 57.547 96.2767 57.547 96.6981Z" fill="#E8F1FF"/>
<path d="M69.4766 96.6981V102.96C69.4786 103.351 69.6287 103.729 69.8982 104.021C70.1677 104.313 70.5376 104.5 70.9393 104.546C73.2781 104.824 75.6428 104.824 77.9816 104.546C78.3833 104.5 78.7532 104.313 79.0217 104.021C79.2912 103.728 79.4404 103.351 79.4424 102.96V96.6981C79.4424 96.4894 79.4006 96.2827 79.3181 96.0897C79.2355 95.8968 79.1152 95.7216 78.9621 95.574C78.8099 95.4264 78.6289 95.3093 78.4291 95.2296C78.2302 95.1499 78.0164 95.109 77.8006 95.1094H71.1183C70.6828 95.1094 70.2651 95.2767 69.9569 95.5747C69.6496 95.8727 69.4766 96.2768 69.4766 96.6981Z" fill="#E8F1FF"/>
<path d="M81.4141 96.6981V101.817C81.4131 102.067 81.4727 102.314 81.5901 102.538C81.7064 102.761 81.8755 102.955 82.0843 103.103C82.2931 103.251 82.5357 103.349 82.7913 103.389C83.0469 103.429 83.3084 103.41 83.554 103.333C86.0798 102.521 88.4772 101.373 90.6758 99.9223C90.8946 99.7762 91.0726 99.5805 91.1949 99.3522C91.3172 99.1241 91.3799 98.8706 91.3769 98.6135V96.6981C91.3779 96.4896 91.3351 96.2831 91.2536 96.0902C91.171 95.8975 91.0507 95.7224 90.8976 95.5749C90.7454 95.4273 90.5655 95.3101 90.3656 95.2303C90.1667 95.1504 89.9539 95.1093 89.7381 95.1094H83.0558C82.6203 95.1094 82.2026 95.2767 81.8944 95.5747C81.5871 95.8727 81.4141 96.2767 81.4141 96.6981Z" fill="#E8F1FF"/>
</g>
<defs>
<filter id="filter0_d_2011_7577" x="21.6992" y="24.0938" width="108.884" height="110.567" filterUnits="userSpaceOnUse" color-interpolation-filters="sRGB">
<feFlood flood-opacity="0" result="BackgroundImageFix"/>
<feColorMatrix in="SourceAlpha" type="matrix" values="0 0 0 0 0 0 0 0 0 0 0 0 0 0 0 0 0 0 127 0" result="hardAlpha"/>
<feOffset dx="3.11914" dy="4.79868"/>
<feGaussianBlur stdDeviation="0.479868"/>
<feComposite in2="hardAlpha" operator="out"/>
<feColorMatrix type="matrix" values="0 0 0 0 0.0154389 0 0 0 0 0.339966 0 0 0 0 0.749313 0 0 0 1 0"/>
<feBlend mode="normal" in2="BackgroundImageFix" result="effect1_dropShadow_2011_7577"/>
<feBlend mode="normal" in="SourceGraphic" in2="effect1_dropShadow_2011_7577" result="shape"/>
</filter>
<filter id="filter1_ddddd_2011_7577" x="42.9016" y="48.2984" width="63.1188" height="69.0555" filterUnits="userSpaceOnUse" color-interpolation-filters="sRGB">
<feFlood flood-opacity="0" result="BackgroundImageFix"/>
<feColorMatrix in="SourceAlpha" type="matrix" values="0 0 0 0 0 0 0 0 0 0 0 0 0 0 0 0 0 0 127 0" result="hardAlpha"/>
<feOffset dy="0.3"/>
<feGaussianBlur stdDeviation="0.45"/>
<feColorMatrix type="matrix" values="0 0 0 0 0 0 0 0 0 0.835294 0 0 0 0 1 0 0 0 0.49 0"/>
<feBlend mode="normal" in2="BackgroundImageFix" result="effect1_dropShadow_2011_7577"/>
<feColorMatrix in="SourceAlpha" type="matrix" values="0 0 0 0 0 0 0 0 0 0 0 0 0 0 0 0 0 0 127 0" result="hardAlpha"/>
<feOffset dy="1.5"/>
<feGaussianBlur stdDeviation="0.75"/>
<feColorMatrix type="matrix" values="0 0 0 0 0 0 0 0 0 0.835294 0 0 0 0 1 0 0 0 0.43 0"/>
<feBlend mode="normal" in2="effect1_dropShadow_2011_7577" result="effect2_dropShadow_2011_7577"/>
<feColorMatrix in="SourceAlpha" type="matrix" values="0 0 0 0 0 0 0 0 0 0 0 0 0 0 0 0 0 0 127 0" result="hardAlpha"/>
<feOffset dy="3.6"/>
<feGaussianBlur stdDeviation="1.05"/>
<feColorMatrix type="matrix" values="0 0 0 0 0 0 0 0 0 0.835294 0 0 0 0 1 0 0 0 0.25 0"/>
<feBlend mode="normal" in2="effect2_dropShadow_2011_7577" result="effect3_dropShadow_2011_7577"/>
<feColorMatrix in="SourceAlpha" type="matrix" values="0 0 0 0 0 0 0 0 0 0 0 0 0 0 0 0 0 0 127 0" result="hardAlpha"/>
<feOffset dy="6.3"/>
<feGaussianBlur stdDeviation="1.2"/>
<feColorMatrix type="matrix" values="0 0 0 0 0 0 0 0 0 0.835294 0 0 0 0 1 0 0 0 0.07 0"/>
<feBlend mode="normal" in2="effect3_dropShadow_2011_7577" result="effect4_dropShadow_2011_7577"/>
<feColorMatrix in="SourceAlpha" type="matrix" values="0 0 0 0 0 0 0 0 0 0 0 0 0 0 0 0 0 0 127 0" result="hardAlpha"/>
<feOffset dy="9.9"/>
<feGaussianBlur stdDeviation="1.35"/>
<feColorMatrix type="matrix" values="0 0 0 0 0 0 0 0 0 0.835294 0 0 0 0 1 0 0 0 0.01 0"/>
<feBlend mode="normal" in2="effect4_dropShadow_2011_7577" result="effect5_dropShadow_2011_7577"/>
<feBlend mode="normal" in="SourceGraphic" in2="effect5_dropShadow_2011_7577" result="shape"/>
</filter>
<linearGradient id="paint0_linear_2011_7577" x1="97.8043" y1="34.1992" x2="42.3043" y2="84.2992" gradientUnits="userSpaceOnUse">
<stop stop-color="#00F7FF"/>
<stop offset="1" stop-color="#0059FF"/>
</linearGradient>
<linearGradient id="paint1_linear_2011_7577" x1="126.248" y1="60.0628" x2="25.0209" y2="88.3332" gradientUnits="userSpaceOnUse">
<stop stop-color="#00F7FF"/>
<stop offset="1" stop-color="#0059FF"/>
</linearGradient>
</defs>
</svg>
